# xmcd
#
# Track frame offsets: 
#        150
#        22344
#        42138
#        55257
#        73476
#        88920
#        109539
#        128807
#        152726
#        173270
#        193139
#        213233
#
# Disc length: 2916 seconds
#
# Revision: 0
# Processed by: cddbd v1.5.2PL0 Copyright (c) Steve Scherf et al.
# Submitted via: ExactAudioCopy v1.3
#
DISCID=a80b620c
DTITLE=Alexis P. Suter Band - Be Love
DYEAR=2019
DGENRE=Blues Rock
TTITLE0=Empty Promises
TTITLE1=Lips, Hips And Fingertips
TTITLE2=Little Back Rider
TTITLE3=I Don't See You Anymore
TTITLE4=Sway
TTITLE5=Dog Eat Dog World
TTITLE6=Be Love
TTITLE7=You Make It So Hard
TTITLE8=Hit Or Miss
TTITLE9=Sick And Tired Blues
TTITLE10=Go
TTITLE11=(I Just Got Off The) Devil's Train
EXTD=
EXTT0=
EXTT1=
EXTT2=
EXTT3=
EXTT4=
EXTT5=
EXTT6=
EXTT7=
EXTT8=
EXTT9=
EXTT10=
EXTT11=
PLAYORDER=
